<?xml version="1.0" standalone="no"?>
<!DOCTYPE svg PUBLIC "-//W3C//DTD SVG 20010904//EN"
 "http://www.w3.org/TR/2001/REC-SVG-20010904/DTD/svg10.dtd">
<svg version="1.0" xmlns="http://www.w3.org/2000/svg"
 width="700.000000pt" height="700.000000pt" viewBox="0 0 700.000000 700.000000"
 preserveAspectRatio="xMidYMid meet">
<metadata>
Created by potrace 1.11, written by Peter Selinger 2001-2013
</metadata>
<g transform="translate(0.000000,700.000000) scale(0.100000,-0.100000)"
fill="#000000" stroke="none">
<path d="M3105 6392 c-72 -4 -82 -10 -89 -44 -3 -18 -6 -177 -7 -353 l-1 -320
-97 -24 c-456 -113 -847 -355 -1114 -689 -185 -230 -347 -563 -407 -832 -45
-205 -55 -309 -55 -630 0 -359 10 -449 75 -690 98 -360 274 -665 535 -926 98
-98 293 -257 335 -272 8 -3 17 -9 20 -13 9 -13 243 -126 337 -163 97 -38 219
-75 314 -96 l57 -13 1 -316 c2 -340 4 -387 15 -399 9 -8 933 -8 942 1 3 3 7
142 9 309 2 166 4 322 4 344 1 45 -5 42 101 60 14 3 43 10 65 16 22 5 49 12
61 14 39 7 236 75 302 104 276 122 492 279 688 500 147 166 317 522 349 730 4
25 9 54 12 65 12 59 12 135 -1 148 -18 18 -66 20 -521 20 -398 0 -498 -2 -513
-12 -14 -9 -36 -55 -75 -156 -19 -49 -44 -108 -57 -130 -109 -195 -298 -328
-557 -391 -88 -22 -400 -27 -489 -9 -133 27 -262 84 -363 158 -73 54 -214 198
-261 267 -107 157 -189 393 -217 621 -16 127 -7 445 14 559 47 245 120 420
240 577 102 134 204 216 358 289 149 71 231 88 420 89 181 0 228 -5 329 -36
198 -60 351 -164 461 -314 50 -67 76 -116 145 -271 22 -50 40 -76 58 -85 41
-20 954 -23 1001 -3 l34 14 -6 93 c-9 135 -27 212 -82 356 -84 221 -207 409
-386 592 -182 185 -381 316 -639 422 -132 54 -300 104 -405 121 -83 14 -75
-24 -75 367 l0 349 -32 1 c-99 2 -799 4 -833 1z"/>
</g>
</svg>
