<!DOCTYPE svg PUBLIC "-//W3C//DTD SVG 20010904//EN" "http://www.w3.org/TR/2001/REC-SVG-20010904/DTD/svg10.dtd">
<svg version="1.0" xmlns="http://www.w3.org/2000/svg" width="512px" height="512px" viewBox="0 0 5120 5120" preserveAspectRatio="xMidYMid meet">
<g id="layer1" fill="#000000" stroke="none">
 <path d="M2207 4673 c-4 -3 -7 -122 -7 -264 l0 -259 -27 -6 c-153 -34 -281 -81 -424 -156 -322 -168 -580 -482 -697 -848 -67 -209 -86 -370 -79 -649 7 -307 48 -485 166 -726 201 -410 562 -685 1034 -789 l27 -6 0 -255 c0 -242 1 -255 20 -265 12 -7 134 -9 352 -8 l333 3 0 257 0 257 65 12 c150 27 345 101 485 184 280 165 495 436 580 730 31 110 43 228 25 250 -11 13 -61 15 -369 15 -263 0 -362 -4 -381 -13 -16 -8 -31 -31 -46 -72 -80 -226 -230 -364 -463 -427 -111 -30 -297 -30 -406 1 -250 70 -423 244 -515 518 -78 234 -80 543 -5 783 47 149 108 254 205 351 97 98 182 150 305 188 109 33 318 34 440 2 227 -60 365 -184 434 -390 15 -43 32 -86 40 -95 12 -14 54 -16 386 -16 286 0 375 3 382 13 15 18 -2 146 -32 252 -35 121 -121 295 -194 392 -192 254 -497 439 -843 510 l-88 17 -2 256 -3 255 -346 3 c-190 1 -348 -1 -352 -5z"/>
 </g>

</svg>