<?xml version="1.0" standalone="no"?>
<!DOCTYPE svg PUBLIC "-//W3C//DTD SVG 20010904//EN"
 "http://www.w3.org/TR/2001/REC-SVG-20010904/DTD/svg10.dtd">
<svg version="1.0" xmlns="http://www.w3.org/2000/svg"
 width="16.000000pt" height="16.000000pt" viewBox="0 0 16.000000 16.000000"
 preserveAspectRatio="xMidYMid meet">
<metadata>
Created by potrace 1.11, written by Peter Selinger 2001-2013
</metadata>
<g transform="translate(0.000000,16.000000) scale(0.005333,-0.005333)"
fill="#000000" stroke="none">
<path d="M815 2454 c-43 -10 -102 -27 -145 -42 -67 -23 -265 -127 -345 -180
l-70 -47 -3 -172 c-2 -121 1 -173 9 -173 6 0 43 24 82 53 160 120 276 187 382
221 85 27 225 38 340 26 129 -13 153 -21 430 -145 284 -127 362 -146 600 -148
182 -1 274 17 400 77 89 41 256 142 273 164 14 18 17 288 4 310 -7 10 -23 2
-68 -30 -224 -164 -367 -218 -579 -218 -208 0 -296 24 -725 200 -190 78 -281
100 -435 105 -71 2 -139 2 -150 -1z"/>
<path d="M264 1626 c-3 -8 -7 -79 -7 -158 l-2 -143 1240 -3 c682 -1 1250 0
1263 3 22 5 22 7 20 158 l-3 152 -1253 3 c-1089 2 -1253 0 -1258 -12z"/>
<path d="M272 982 c-9 -7 -12 -46 -10 -163 3 -152 3 -154 26 -153 12 0 578 1
1257 2 l1235 2 0 160 0 160 -1247 0 c-687 0 -1254 -4 -1261 -8z"/>
</g>
</svg>
