<?xml version="1.0" standalone="no"?>
<!DOCTYPE svg PUBLIC "-//W3C//DTD SVG 20010904//EN"
 "http://www.w3.org/TR/2001/REC-SVG-20010904/DTD/svg10.dtd">
<svg version="1.0" xmlns="http://www.w3.org/2000/svg"
 width="768.000000pt" height="768.000000pt" viewBox="0 0 768.000000 768.000000"
 preserveAspectRatio="xMidYMid meet">
<metadata>
Created by potrace 1.11, written by Peter Selinger 2001-2013
</metadata>
<g transform="translate(0.000000,768.000000) scale(0.100000,-0.100000)"
fill="#000000" stroke="none">
<path d="M3271 6234 c-688 -151 -1299 -621 -1629 -1254 -277 -532 -349 -1149
-202 -1730 208 -824 841 -1488 1653 -1734 246 -75 304 -77 363 -15 l29 30 3
508 3 507 -23 34 c-18 26 -43 42 -113 70 -188 76 -306 151 -441 282 -445 431
-520 1105 -181 1620 148 225 343 385 592 487 122 50 130 55 149 95 14 30 16
92 16 521 0 552 1 542 -74 576 -48 22 -59 22 -145 3z"/>
<path d="M4196 6219 c-57 -45 -56 -36 -56 -569 0 -519 0 -521 46 -561 11 -9
60 -33 109 -53 292 -118 539 -355 672 -645 70 -154 76 -164 112 -188 l34 -23
492 0 492 0 34 23 c19 12 43 39 54 59 19 37 19 39 2 125 -51 246 -193 581
-344 808 -100 151 -166 231 -301 369 -315 321 -697 540 -1134 651 -121 31
-176 32 -212 4z"/>
<path d="M5095 3520 c-35 -14 -62 -53 -97 -141 -128 -323 -387 -584 -707 -715
-47 -20 -99 -49 -116 -65 l-30 -29 -3 -505 c-3 -559 -4 -545 61 -586 43 -27
115 -21 274 25 295 85 557 215 798 396 119 89 332 293 422 405 163 202 326
491 408 725 44 127 95 323 95 368 0 45 -25 89 -63 112 -31 19 -53 20 -527 19
-272 0 -504 -4 -515 -9z"/>
</g>
</svg>
